<svg width="1186" height="349" viewBox="0 0 1186 349" fill="none" xmlns="http://www.w3.org/2000/svg">
<rect width="289" height="200" rx="35" fill="#262135"/>
<g filter="url(#filter0_d)">
<path d="M100.94 85.2861C99.7465 85.2861 98.8155 85.777 98.1469 86.7588C97.4783 87.7321 97.1439 89.0778 97.1439 90.7959C97.1439 94.3675 98.5023 96.1533 101.219 96.1533C102.04 96.1533 102.836 96.0391 103.606 95.8105C104.376 95.582 105.15 95.307 105.929 94.9854V99.2256C104.38 99.9111 102.628 100.254 100.673 100.254C97.8718 100.254 95.7221 99.4414 94.224 97.8164C92.7344 96.1914 91.9896 93.8428 91.9896 90.7705C91.9896 88.8493 92.3493 87.1608 93.0687 85.7051C93.7966 84.2493 94.8376 83.1322 96.1918 82.3535C97.5544 81.5664 99.154 81.1729 100.991 81.1729C102.996 81.1729 104.913 81.6087 106.742 82.4805L105.205 86.4287C104.52 86.1071 103.834 85.8363 103.149 85.6162C102.463 85.3962 101.727 85.2861 100.94 85.2861ZM114.76 100V81.4395H119.775V95.9502H126.922V100H114.76ZM146.112 100H135.093V81.4395H146.112V85.4639H140.107V88.3838H145.668V92.4082H140.107V95.9121H146.112V100ZM165.95 100L165.036 96.5215H159.006L158.066 100H152.556L158.612 81.3633H165.303L171.434 100H165.95ZM163.995 92.4082L163.195 89.3613C163.009 88.6842 162.78 87.8083 162.51 86.7334C162.247 85.6585 162.074 84.8883 161.989 84.4229C161.913 84.8545 161.761 85.5654 161.532 86.5557C161.312 87.5459 160.817 89.4967 160.047 92.4082H163.995ZM196.325 100H189.749L182.969 86.9238H182.855C183.016 88.9805 183.096 90.5505 183.096 91.6338V100H178.653V81.4395H185.204L191.958 94.3379H192.034C191.915 92.4674 191.856 90.9652 191.856 89.8311V81.4395H196.325V100Z" fill="#FAFF00"/>
</g>
<rect x="897" y="49" width="289" height="200" rx="35" fill="#262135"/>
<g filter="url(#filter1_d)">
<path d="M1015.36 148.343C1015.36 150.416 1014.74 152.02 1013.51 153.154C1012.3 154.28 1010.56 154.843 1008.31 154.843H1006.9V161H1001.89V142.439H1008.31C1010.65 142.439 1012.41 142.951 1013.59 143.976C1014.77 145 1015.36 146.455 1015.36 148.343ZM1006.9 150.755H1007.81C1008.57 150.755 1009.16 150.543 1009.6 150.12C1010.05 149.697 1010.28 149.113 1010.28 148.368C1010.28 147.116 1009.58 146.489 1008.2 146.489H1006.9V150.755ZM1023.51 161V142.439H1028.53V156.95H1035.68V161H1023.51ZM1061.21 151.694C1061.21 154.817 1060.45 157.191 1058.92 158.816C1057.38 160.441 1055.14 161.254 1052.19 161.254C1049.28 161.254 1047.04 160.437 1045.48 158.804C1043.93 157.17 1043.16 154.792 1043.16 151.669C1043.16 148.58 1043.93 146.223 1045.47 144.598C1047.02 142.964 1049.27 142.147 1052.21 142.147C1055.17 142.147 1057.4 142.956 1058.93 144.572C1060.45 146.189 1061.21 148.563 1061.21 151.694ZM1048.44 151.694C1048.44 155.283 1049.69 157.077 1052.19 157.077C1053.46 157.077 1054.4 156.641 1055.01 155.77C1055.62 154.898 1055.93 153.539 1055.93 151.694C1055.93 149.841 1055.62 148.474 1054.99 147.594C1054.37 146.705 1053.45 146.261 1052.21 146.261C1049.7 146.261 1048.44 148.072 1048.44 151.694ZM1077.95 161H1072.94V146.54H1068.41V142.439H1082.47V146.54H1077.95V161Z" fill="#FAFF00"/>
</g>
<rect x="589" width="289" height="200" rx="35" fill="#262135"/>
<g filter="url(#filter2_d)">
<path d="M689.94 88.2861C688.746 88.2861 687.815 88.777 687.147 89.7588C686.478 90.7321 686.144 92.0778 686.144 93.7959C686.144 97.3675 687.502 99.1533 690.219 99.1533C691.04 99.1533 691.836 99.0391 692.606 98.8105C693.376 98.582 694.15 98.307 694.929 97.9854V102.226C693.38 102.911 691.628 103.254 689.673 103.254C686.872 103.254 684.722 102.441 683.224 100.816C681.734 99.1914 680.99 96.8428 680.99 93.7705C680.99 91.8493 681.349 90.1608 682.069 88.7051C682.797 87.2493 683.838 86.1322 685.192 85.3535C686.554 84.5664 688.154 84.1729 689.991 84.1729C691.996 84.1729 693.913 84.6087 695.742 85.4805L694.205 89.4287C693.52 89.1071 692.834 88.8363 692.149 88.6162C691.463 88.3962 690.727 88.2861 689.94 88.2861ZM703.76 103V84.4395H708.775V98.9502H715.922V103H703.76ZM735.112 103H724.093V84.4395H735.112V88.4639H729.107V91.3838H734.668V95.4082H729.107V98.9121H735.112V103ZM754.95 103L754.036 99.5215H748.006L747.066 103H741.556L747.612 84.3633H754.303L760.434 103H754.95ZM752.995 95.4082L752.195 92.3613C752.009 91.6842 751.78 90.8083 751.51 89.7334C751.247 88.6585 751.074 87.8883 750.989 87.4229C750.913 87.8545 750.761 88.5654 750.532 89.5557C750.312 90.5459 749.817 92.4967 749.047 95.4082H752.995ZM785.325 103H778.749L771.969 89.9238H771.855C772.016 91.9805 772.096 93.5505 772.096 94.6338V103H767.653V84.4395H774.204L780.958 97.3379H781.034C780.915 95.4674 780.856 93.9652 780.856 92.8311V84.4395H785.325V103Z" fill="#FAFF00"/>
</g>
<rect x="291" y="149" width="289" height="200" rx="35" fill="#262135"/>
<g filter="url(#filter3_d)">
<path d="M372.28 249L371.366 245.521H365.336L364.396 249H358.886L364.942 230.363H371.632L377.764 249H372.28ZM370.325 241.408L369.525 238.361C369.339 237.684 369.11 236.808 368.839 235.733C368.577 234.659 368.404 233.888 368.319 233.423C368.243 233.854 368.09 234.565 367.862 235.556C367.642 236.546 367.147 238.497 366.377 241.408H370.325ZM402.655 249H396.079L389.299 235.924H389.185C389.346 237.98 389.426 239.55 389.426 240.634V249H384.983V230.439H391.534L398.288 243.338H398.364C398.245 241.467 398.186 239.965 398.186 238.831V230.439H402.655V249ZM423.254 249L422.34 245.521H416.31L415.37 249H409.861L415.916 230.363H422.607L428.738 249H423.254ZM421.299 241.408L420.499 238.361C420.313 237.684 420.085 236.808 419.814 235.733C419.551 234.659 419.378 233.888 419.293 233.423C419.217 233.854 419.065 234.565 418.836 235.556C418.616 236.546 418.121 238.497 417.351 241.408H421.299ZM435.957 249V230.439H440.972V244.95H448.119V249H435.957ZM462.917 237.32L466.116 230.439H471.55L465.443 241.751V249H460.39V241.903L454.284 230.439H459.743L462.917 237.32ZM491.984 249H477.524V245.902L485.56 234.489H477.714V230.439H491.781V233.524L483.745 244.95H491.984V249ZM510.87 249H499.85V230.439H510.87V234.464H504.865V237.384H510.425V241.408H504.865V244.912H510.87V249Z" fill="#FAFF00"/>
</g>
<defs>
<filter id="filter0_d" x="91.9897" y="81.1729" width="116.335" height="29.0811" filterUnits="userSpaceOnUse" color-interpolation-filters="sRGB">
<feFlood flood-opacity="0" result="BackgroundImageFix"/>
<feColorMatrix in="SourceAlpha" type="matrix" values="0 0 0 0 0 0 0 0 0 0 0 0 0 0 0 0 0 0 127 0"/>
<feOffset dx="8" dy="6"/>
<feGaussianBlur stdDeviation="2"/>
<feColorMatrix type="matrix" values="0 0 0 0 0 0 0 0 0 0 0 0 0 0 0 0 0 0 0.35 0"/>
<feBlend mode="normal" in2="BackgroundImageFix" result="effect1_dropShadow"/>
<feBlend mode="normal" in="SourceGraphic" in2="effect1_dropShadow" result="shape"/>
</filter>
<filter id="filter1_d" x="1001.89" y="142.147" width="92.5873" height="29.1064" filterUnits="userSpaceOnUse" color-interpolation-filters="sRGB">
<feFlood flood-opacity="0" result="BackgroundImageFix"/>
<feColorMatrix in="SourceAlpha" type="matrix" values="0 0 0 0 0 0 0 0 0 0 0 0 0 0 0 0 0 0 127 0"/>
<feOffset dx="8" dy="6"/>
<feGaussianBlur stdDeviation="2"/>
<feColorMatrix type="matrix" values="0 0 0 0 0 0 0 0 0 0 0 0 0 0 0 0 0 0 0.35 0"/>
<feBlend mode="normal" in2="BackgroundImageFix" result="effect1_dropShadow"/>
<feBlend mode="normal" in="SourceGraphic" in2="effect1_dropShadow" result="shape"/>
</filter>
<filter id="filter2_d" x="680.99" y="84.1729" width="116.335" height="29.0811" filterUnits="userSpaceOnUse" color-interpolation-filters="sRGB">
<feFlood flood-opacity="0" result="BackgroundImageFix"/>
<feColorMatrix in="SourceAlpha" type="matrix" values="0 0 0 0 0 0 0 0 0 0 0 0 0 0 0 0 0 0 127 0"/>
<feOffset dx="8" dy="6"/>
<feGaussianBlur stdDeviation="2"/>
<feColorMatrix type="matrix" values="0 0 0 0 0 0 0 0 0 0 0 0 0 0 0 0 0 0 0.35 0"/>
<feBlend mode="normal" in2="BackgroundImageFix" result="effect1_dropShadow"/>
<feBlend mode="normal" in="SourceGraphic" in2="effect1_dropShadow" result="shape"/>
</filter>
<filter id="filter3_d" x="358.886" y="230.363" width="163.983" height="28.6367" filterUnits="userSpaceOnUse" color-interpolation-filters="sRGB">
<feFlood flood-opacity="0" result="BackgroundImageFix"/>
<feColorMatrix in="SourceAlpha" type="matrix" values="0 0 0 0 0 0 0 0 0 0 0 0 0 0 0 0 0 0 127 0"/>
<feOffset dx="8" dy="6"/>
<feGaussianBlur stdDeviation="2"/>
<feColorMatrix type="matrix" values="0 0 0 0 0 0 0 0 0 0 0 0 0 0 0 0 0 0 0.35 0"/>
<feBlend mode="normal" in2="BackgroundImageFix" result="effect1_dropShadow"/>
<feBlend mode="normal" in="SourceGraphic" in2="effect1_dropShadow" result="shape"/>
</filter>
</defs>
</svg>
