<svg width="203" height="53" viewBox="0 0 203 53" fill="none" xmlns="http://www.w3.org/2000/svg">
<rect width="202.498" height="53" rx="26.5" fill="#00E0FF"/>
<path d="M48.2955 32.252C46.9755 32.252 45.7875 31.976 44.7315 31.424C43.6875 30.86 42.8655 30.08 42.2655 29.084C41.6655 28.088 41.3655 26.96 41.3655 25.7C41.3655 24.44 41.6655 23.312 42.2655 22.316C42.8655 21.32 43.6875 20.546 44.7315 19.994C45.7875 19.43 46.9755 19.148 48.2955 19.148C49.4475 19.148 50.4855 19.352 51.4095 19.76C52.3335 20.168 53.1015 20.756 53.7135 21.524L51.4455 23.576C50.6295 22.592 49.6395 22.1 48.4755 22.1C47.7915 22.1 47.1795 22.25 46.6395 22.55C46.1115 22.85 45.6975 23.276 45.3975 23.828C45.1095 24.368 44.9655 24.992 44.9655 25.7C44.9655 26.408 45.1095 27.038 45.3975 27.59C45.6975 28.13 46.1115 28.55 46.6395 28.85C47.1795 29.15 47.7915 29.3 48.4755 29.3C49.6395 29.3 50.6295 28.808 51.4455 27.824L53.7135 29.876C53.1015 30.644 52.3335 31.232 51.4095 31.64C50.4855 32.048 49.4475 32.252 48.2955 32.252ZM61.5378 32.162C60.4938 32.162 59.5518 31.946 58.7118 31.514C57.8718 31.082 57.2118 30.482 56.7318 29.714C56.2638 28.946 56.0298 28.076 56.0298 27.104C56.0298 26.144 56.2638 25.28 56.7318 24.512C57.2118 23.744 57.8658 23.15 58.6938 22.73C59.5338 22.298 60.4818 22.082 61.5378 22.082C62.5938 22.082 63.5418 22.298 64.3818 22.73C65.2218 23.15 65.8758 23.744 66.3438 24.512C66.8118 25.268 67.0458 26.132 67.0458 27.104C67.0458 28.076 66.8118 28.946 66.3438 29.714C65.8758 30.482 65.2218 31.082 64.3818 31.514C63.5418 31.946 62.5938 32.162 61.5378 32.162ZM61.5378 29.444C62.1378 29.444 62.6298 29.24 63.0138 28.832C63.3978 28.412 63.5898 27.836 63.5898 27.104C63.5898 26.384 63.3978 25.82 63.0138 25.412C62.6298 25.004 62.1378 24.8 61.5378 24.8C60.9378 24.8 60.4458 25.004 60.0618 25.412C59.6778 25.82 59.4858 26.384 59.4858 27.104C59.4858 27.836 59.6778 28.412 60.0618 28.832C60.4458 29.24 60.9378 29.444 61.5378 29.444ZM76.784 22.082C77.996 22.082 78.968 22.442 79.7 23.162C80.444 23.882 80.816 24.968 80.816 26.42V32H77.396V26.978C77.396 25.646 76.862 24.98 75.794 24.98C75.206 24.98 74.732 25.172 74.372 25.556C74.024 25.94 73.85 26.516 73.85 27.284V32H70.43V22.244H73.688V23.306C74.072 22.91 74.528 22.61 75.056 22.406C75.584 22.19 76.16 22.082 76.784 22.082ZM91.4952 31.604C91.2072 31.784 90.8532 31.922 90.4332 32.018C90.0252 32.114 89.5872 32.162 89.1192 32.162C87.8472 32.162 86.8692 31.85 86.1852 31.226C85.5012 30.602 85.1592 29.672 85.1592 28.436V25.16H83.7372V22.604H85.1592V20.066H88.5792V22.604H90.8112V25.16H88.5792V28.4C88.5792 28.748 88.6692 29.024 88.8492 29.228C89.0412 29.42 89.2932 29.516 89.6052 29.516C90.0012 29.516 90.3492 29.414 90.6492 29.21L91.4952 31.604ZM98.772 22.082C100.392 22.082 101.628 22.454 102.48 23.198C103.332 23.93 103.758 25.058 103.758 26.582V32H100.572V30.74C100.08 31.688 99.12 32.162 97.692 32.162C96.936 32.162 96.282 32.03 95.73 31.766C95.178 31.502 94.758 31.148 94.47 30.704C94.194 30.248 94.056 29.732 94.056 29.156C94.056 28.232 94.41 27.518 95.118 27.014C95.826 26.498 96.918 26.24 98.394 26.24H100.338C100.278 25.208 99.588 24.692 98.268 24.692C97.8 24.692 97.326 24.77 96.846 24.926C96.366 25.07 95.958 25.274 95.622 25.538L94.47 23.216C95.01 22.856 95.664 22.58 96.432 22.388C97.212 22.184 97.992 22.082 98.772 22.082ZM98.646 30.002C99.042 30.002 99.39 29.906 99.69 29.714C99.99 29.522 100.206 29.24 100.338 28.868V28.022H98.862C97.866 28.022 97.368 28.352 97.368 29.012C97.368 29.312 97.482 29.552 97.71 29.732C97.938 29.912 98.25 30.002 98.646 30.002ZM112.843 32.162C111.763 32.162 110.797 31.946 109.945 31.514C109.093 31.082 108.427 30.482 107.947 29.714C107.479 28.946 107.245 28.076 107.245 27.104C107.245 26.132 107.479 25.268 107.947 24.512C108.427 23.744 109.093 23.15 109.945 22.73C110.797 22.298 111.763 22.082 112.843 22.082C113.947 22.082 114.901 22.322 115.705 22.802C116.509 23.27 117.079 23.924 117.415 24.764L114.769 26.114C114.325 25.238 113.677 24.8 112.825 24.8C112.213 24.8 111.703 25.004 111.295 25.412C110.899 25.82 110.701 26.384 110.701 27.104C110.701 27.836 110.899 28.412 111.295 28.832C111.703 29.24 112.213 29.444 112.825 29.444C113.677 29.444 114.325 29.006 114.769 28.13L117.415 29.48C117.079 30.32 116.509 30.98 115.705 31.46C114.901 31.928 113.947 32.162 112.843 32.162ZM127.393 31.604C127.105 31.784 126.751 31.922 126.331 32.018C125.923 32.114 125.485 32.162 125.017 32.162C123.745 32.162 122.767 31.85 122.083 31.226C121.399 30.602 121.057 29.672 121.057 28.436V25.16H119.635V22.604H121.057V20.066H124.477V22.604H126.709V25.16H124.477V28.4C124.477 28.748 124.567 29.024 124.747 29.228C124.939 29.42 125.191 29.516 125.503 29.516C125.899 29.516 126.247 29.414 126.547 29.21L127.393 31.604ZM143.526 32.252C141.654 32.252 140.196 31.742 139.152 30.722C138.12 29.702 137.604 28.256 137.604 26.384V19.4H141.168V26.276C141.168 28.292 141.966 29.3 143.562 29.3C145.146 29.3 145.938 28.292 145.938 26.276V19.4H149.448V26.384C149.448 28.256 148.926 29.702 147.882 30.722C146.85 31.742 145.398 32.252 143.526 32.252ZM157.047 32.162C156.231 32.162 155.427 32.072 154.635 31.892C153.843 31.7 153.207 31.454 152.727 31.154L153.753 28.814C154.197 29.09 154.725 29.312 155.337 29.48C155.949 29.636 156.555 29.714 157.155 29.714C157.707 29.714 158.097 29.66 158.325 29.552C158.565 29.432 158.685 29.264 158.685 29.048C158.685 28.832 158.541 28.682 158.253 28.598C157.977 28.502 157.533 28.412 156.921 28.328C156.141 28.232 155.475 28.106 154.923 27.95C154.383 27.794 153.915 27.506 153.519 27.086C153.123 26.666 152.925 26.078 152.925 25.322C152.925 24.698 153.111 24.146 153.483 23.666C153.855 23.174 154.395 22.79 155.103 22.514C155.823 22.226 156.681 22.082 157.677 22.082C158.385 22.082 159.087 22.154 159.783 22.298C160.479 22.442 161.061 22.646 161.529 22.91L160.503 25.232C159.639 24.752 158.703 24.512 157.695 24.512C157.155 24.512 156.759 24.578 156.507 24.71C156.255 24.83 156.129 24.992 156.129 25.196C156.129 25.424 156.267 25.586 156.543 25.682C156.819 25.766 157.275 25.856 157.911 25.952C158.715 26.072 159.381 26.21 159.909 26.366C160.437 26.522 160.893 26.81 161.277 27.23C161.673 27.638 161.871 28.214 161.871 28.958C161.871 29.57 161.685 30.122 161.313 30.614C160.941 31.094 160.389 31.472 159.657 31.748C158.937 32.024 158.067 32.162 157.047 32.162Z" fill="#121426"/>
</svg>
