<svg width="1093" height="255" viewBox="0 0 1093 255" fill="none" xmlns="http://www.w3.org/2000/svg">
<path d="M-23.6016 71.2266H23.957C38.0846 71.2266 48.7943 73.9284 56.0859 79.332C63.3776 84.6706 67.0234 92.3529 67.0234 102.379C67.0234 121.129 57.3555 133.401 38.0195 139.195V139.977C43.7487 141.865 48.306 145.185 51.6914 149.938C55.0768 154.625 56.7695 160.387 56.7695 167.223C56.7695 182.132 51.7891 193.655 41.8281 201.793C31.9323 209.931 17.8698 214 -0.359375 214H-53.7773L-23.6016 71.2266ZM2.96094 126.012H9.99219C15.7214 126.012 20.0508 124.775 22.9805 122.301C25.9102 119.827 27.375 115.855 27.375 110.387C27.375 103.746 23.2409 100.426 14.9727 100.426H8.82031L2.96094 126.012ZM-2.80078 154.234L-9.24609 184.215H-1.23828C4.36068 184.215 9.01562 182.652 12.7266 179.527C16.5026 176.337 18.3906 172.366 18.3906 167.613C18.3906 163.121 17.3164 159.768 15.168 157.555C13.0195 155.341 9.24349 154.234 3.83984 154.234H-2.80078ZM181.355 68.9805C198.283 68.9805 211.434 73.8307 220.809 83.5312C230.249 93.1667 234.969 106.643 234.969 123.961C234.969 141.279 231.714 157.132 225.203 171.52C218.758 185.842 209.839 196.845 198.445 204.527C187.052 212.145 173.836 215.953 158.797 215.953C141.284 215.953 127.742 211.103 118.172 201.402C108.667 191.702 103.914 178.225 103.914 160.973C103.914 143.72 107.267 127.867 113.973 113.414C120.678 98.9609 129.793 87.9583 141.316 80.4062C152.905 72.7891 166.251 68.9805 181.355 68.9805ZM196.395 124.352C196.395 116.93 194.832 111.135 191.707 106.969C188.582 102.737 184.057 100.621 178.133 100.621C171.688 100.621 165.763 103.355 160.359 108.824C154.956 114.293 150.626 121.812 147.371 131.383C144.181 140.953 142.586 150.751 142.586 160.777C142.586 176.533 149.096 184.41 162.117 184.41C168.302 184.41 174.031 181.708 179.305 176.305C184.643 170.901 188.81 163.609 191.805 154.43C194.865 145.25 196.395 135.224 196.395 124.352ZM317.66 162.047L306.625 214H268.441L298.617 71.2266H336.41C352.816 71.2266 365.382 74.4818 374.105 80.9922C382.829 87.5026 387.191 97.3008 387.191 110.387C387.191 120.543 384.88 129.397 380.258 136.949C375.635 144.501 368.767 150.263 359.652 154.234L381.527 204.625L385.434 214H343.832L324.789 162.047H317.66ZM323.812 133.043H328.793C334.978 133.043 339.893 131.285 343.539 127.77C347.185 124.189 349.008 119.208 349.008 112.828C349.008 108.792 347.868 105.732 345.59 103.648C343.376 101.5 340.121 100.426 335.824 100.426H330.648L323.812 133.043ZM422.324 214L452.5 71.2266H491.27L461.094 214H422.324ZM643.199 214H598.766L570.543 113.609H569.762C567.874 132.555 566.018 146.161 564.195 154.43L551.598 214H517.613L547.789 71.2266H592.223L620.152 167.223H621.031C622.919 151.858 624.775 139.781 626.598 130.992L639.391 71.2266H673.375L643.199 214ZM767.785 130.406H827.355L811.047 208.043C794.771 213.316 777.811 215.953 760.168 215.953C743.176 215.953 729.992 211.005 720.617 201.109C711.242 191.214 706.555 177.184 706.555 159.02C706.555 141.637 710.135 125.947 717.297 111.949C724.458 97.9518 734.257 87.3073 746.691 80.0156C759.191 72.6589 773.71 68.9805 790.246 68.9805C807.564 68.9805 822.147 72.4635 833.996 79.4297L819.641 109.605C809.68 103.746 799.719 100.816 789.758 100.816C781.164 100.816 773.547 103.193 766.906 107.945C760.331 112.633 755.057 119.599 751.086 128.844C747.18 138.089 745.227 147.952 745.227 158.434C745.227 175.621 752.03 184.215 765.637 184.215C769.738 184.215 774.068 183.759 778.625 182.848L783.605 160.191H761.242L767.785 130.406Z" fill="#343434" fill-opacity="0.25"/>
<g filter="url(#filter0_d)">
<path d="M618.08 179.16C621.632 179.16 624.736 179.88 627.392 181.32C630.08 182.728 632.144 184.712 633.584 187.272C635.024 189.832 635.744 192.76 635.744 196.056C635.744 199.32 635.008 202.232 633.536 204.792C632.096 207.352 630.032 209.368 627.344 210.84C624.688 212.28 621.6 213 618.08 213H604.688V179.16H618.08ZM617.36 204.696C620.112 204.696 622.272 203.944 623.84 202.44C625.408 200.936 626.192 198.808 626.192 196.056C626.192 193.272 625.408 191.128 623.84 189.624C622.272 188.088 620.112 187.32 617.36 187.32H614.096V204.696H617.36ZM640.849 199.512C640.849 196.728 641.345 194.296 642.337 192.216C643.361 190.136 644.737 188.536 646.465 187.416C648.225 186.296 650.177 185.736 652.321 185.736C654.177 185.736 655.777 186.104 657.121 186.84C658.465 187.576 659.505 188.568 660.241 189.816V186.072H669.649V213H660.241V209.256C659.505 210.504 658.449 211.496 657.073 212.232C655.729 212.968 654.145 213.336 652.321 213.336C650.177 213.336 648.225 212.776 646.465 211.656C644.737 210.536 643.361 208.936 642.337 206.856C641.345 204.744 640.849 202.296 640.849 199.512ZM660.241 199.512C660.241 197.784 659.761 196.424 658.801 195.432C657.873 194.44 656.721 193.944 655.345 193.944C653.937 193.944 652.769 194.44 651.841 195.432C650.913 196.392 650.449 197.752 650.449 199.512C650.449 201.24 650.913 202.616 651.841 203.64C652.769 204.632 653.937 205.128 655.345 205.128C656.721 205.128 657.873 204.632 658.801 203.64C659.761 202.648 660.241 201.272 660.241 199.512ZM693.298 204.984V213H689.218C682.338 213 678.898 209.592 678.898 202.776V193.896H675.586V186.072H678.898V179.544H688.354V186.072H693.25V193.896H688.354V202.92C688.354 203.656 688.514 204.184 688.834 204.504C689.186 204.824 689.762 204.984 690.562 204.984H693.298ZM698.477 199.512C698.477 196.728 698.973 194.296 699.965 192.216C700.989 190.136 702.365 188.536 704.093 187.416C705.853 186.296 707.805 185.736 709.949 185.736C711.805 185.736 713.405 186.104 714.749 186.84C716.093 187.576 717.133 188.568 717.869 189.816V186.072H727.277V213H717.869V209.256C717.133 210.504 716.077 211.496 714.701 212.232C713.357 212.968 711.773 213.336 709.949 213.336C707.805 213.336 705.853 212.776 704.093 211.656C702.365 210.536 700.989 208.936 699.965 206.856C698.973 204.744 698.477 202.296 698.477 199.512ZM717.869 199.512C717.869 197.784 717.389 196.424 716.429 195.432C715.501 194.44 714.349 193.944 712.973 193.944C711.565 193.944 710.397 194.44 709.469 195.432C708.541 196.392 708.077 197.752 708.077 199.512C708.077 201.24 708.541 202.616 709.469 203.64C710.397 204.632 711.565 205.128 712.973 205.128C714.349 205.128 715.501 204.632 716.429 203.64C717.389 202.648 717.869 201.272 717.869 199.512Z" fill="#00E0FF"/>
</g>
<path d="M145.93 98.8672H149.598L143.773 116H139.812L134 98.8672H137.668L140.891 109.062C141.07 109.664 141.254 110.367 141.441 111.172C141.637 111.969 141.758 112.523 141.805 112.836C141.891 112.117 142.184 110.859 142.684 109.062L145.93 98.8672ZM151.332 99.5117C151.332 98.3477 151.98 97.7656 153.277 97.7656C154.574 97.7656 155.223 98.3477 155.223 99.5117C155.223 100.066 155.059 100.5 154.73 100.812C154.41 101.117 153.926 101.27 153.277 101.27C151.98 101.27 151.332 100.684 151.332 99.5117ZM155.059 116H151.484V102.898H155.059V116ZM167.961 112.109C167.961 113.453 167.492 114.477 166.555 115.18C165.625 115.883 164.23 116.234 162.371 116.234C161.418 116.234 160.605 116.168 159.934 116.035C159.262 115.91 158.633 115.723 158.047 115.473V112.52C158.711 112.832 159.457 113.094 160.285 113.305C161.121 113.516 161.855 113.621 162.488 113.621C163.785 113.621 164.434 113.246 164.434 112.496C164.434 112.215 164.348 111.988 164.176 111.816C164.004 111.637 163.707 111.438 163.285 111.219C162.863 110.992 162.301 110.73 161.598 110.434C160.59 110.012 159.848 109.621 159.371 109.262C158.902 108.902 158.559 108.492 158.34 108.031C158.129 107.562 158.023 106.988 158.023 106.309C158.023 105.145 158.473 104.246 159.371 103.613C160.277 102.973 161.559 102.652 163.215 102.652C164.793 102.652 166.328 102.996 167.82 103.684L166.742 106.262C166.086 105.98 165.473 105.75 164.902 105.57C164.332 105.391 163.75 105.301 163.156 105.301C162.102 105.301 161.574 105.586 161.574 106.156C161.574 106.477 161.742 106.754 162.078 106.988C162.422 107.223 163.168 107.57 164.316 108.031C165.34 108.445 166.09 108.832 166.566 109.191C167.043 109.551 167.395 109.965 167.621 110.434C167.848 110.902 167.961 111.461 167.961 112.109ZM180.031 116L179.551 114.324H179.363C178.98 114.934 178.438 115.406 177.734 115.742C177.031 116.07 176.23 116.234 175.332 116.234C173.793 116.234 172.633 115.824 171.852 115.004C171.07 114.176 170.68 112.988 170.68 111.441V102.898H174.254V110.551C174.254 111.496 174.422 112.207 174.758 112.684C175.094 113.152 175.629 113.387 176.363 113.387C177.363 113.387 178.086 113.055 178.531 112.391C178.977 111.719 179.199 110.609 179.199 109.062V102.898H182.773V116H180.031ZM194.844 116L194.152 114.219H194.059C193.457 114.977 192.836 115.504 192.195 115.801C191.562 116.09 190.734 116.234 189.711 116.234C188.453 116.234 187.461 115.875 186.734 115.156C186.016 114.438 185.656 113.414 185.656 112.086C185.656 110.695 186.141 109.672 187.109 109.016C188.086 108.352 189.555 107.984 191.516 107.914L193.789 107.844V107.27C193.789 105.941 193.109 105.277 191.75 105.277C190.703 105.277 189.473 105.594 188.059 106.227L186.875 103.812C188.383 103.023 190.055 102.629 191.891 102.629C193.648 102.629 194.996 103.012 195.934 103.777C196.871 104.543 197.34 105.707 197.34 107.27V116H194.844ZM193.789 109.93L192.406 109.977C191.367 110.008 190.594 110.195 190.086 110.539C189.578 110.883 189.324 111.406 189.324 112.109C189.324 113.117 189.902 113.621 191.059 113.621C191.887 113.621 192.547 113.383 193.039 112.906C193.539 112.43 193.789 111.797 193.789 111.008V109.93ZM204.605 116H201.031V97.7656H204.605V116ZM208.215 99.5117C208.215 98.3477 208.863 97.7656 210.16 97.7656C211.457 97.7656 212.105 98.3477 212.105 99.5117C212.105 100.066 211.941 100.5 211.613 100.812C211.293 101.117 210.809 101.27 210.16 101.27C208.863 101.27 208.215 100.684 208.215 99.5117ZM211.941 116H208.367V102.898H211.941V116ZM224.82 116H214.473V113.891L220.543 105.629H214.836V102.898H224.609V105.219L218.703 113.27H224.82V116ZM232.848 105.195C232.09 105.195 231.496 105.438 231.066 105.922C230.637 106.398 230.391 107.078 230.328 107.961H235.344C235.328 107.078 235.098 106.398 234.652 105.922C234.207 105.438 233.605 105.195 232.848 105.195ZM233.352 116.234C231.242 116.234 229.594 115.652 228.406 114.488C227.219 113.324 226.625 111.676 226.625 109.543C226.625 107.348 227.172 105.652 228.266 104.457C229.367 103.254 230.887 102.652 232.824 102.652C234.676 102.652 236.117 103.18 237.148 104.234C238.18 105.289 238.695 106.746 238.695 108.605V110.34H230.246C230.285 111.355 230.586 112.148 231.148 112.719C231.711 113.289 232.5 113.574 233.516 113.574C234.305 113.574 235.051 113.492 235.754 113.328C236.457 113.164 237.191 112.902 237.957 112.543V115.309C237.332 115.621 236.664 115.852 235.953 116C235.242 116.156 234.375 116.234 233.352 116.234ZM245.961 102.898H249.875L252.348 110.27C252.559 110.91 252.703 111.668 252.781 112.543H252.852C252.938 111.738 253.105 110.98 253.355 110.27L255.781 102.898H259.613L254.07 117.676C253.562 119.043 252.836 120.066 251.891 120.746C250.953 121.426 249.855 121.766 248.598 121.766C247.98 121.766 247.375 121.699 246.781 121.566V118.73C247.211 118.832 247.68 118.883 248.188 118.883C248.82 118.883 249.371 118.688 249.84 118.297C250.316 117.914 250.688 117.332 250.953 116.551L251.164 115.906L245.961 102.898ZM264.348 109.426C264.348 110.723 264.559 111.703 264.98 112.367C265.41 113.031 266.105 113.363 267.066 113.363C268.02 113.363 268.703 113.035 269.117 112.379C269.539 111.715 269.75 110.73 269.75 109.426C269.75 108.129 269.539 107.156 269.117 106.508C268.695 105.859 268.004 105.535 267.043 105.535C266.09 105.535 265.402 105.859 264.98 106.508C264.559 107.148 264.348 108.121 264.348 109.426ZM273.406 109.426C273.406 111.559 272.844 113.227 271.719 114.43C270.594 115.633 269.027 116.234 267.02 116.234C265.762 116.234 264.652 115.961 263.691 115.414C262.73 114.859 261.992 114.066 261.477 113.035C260.961 112.004 260.703 110.801 260.703 109.426C260.703 107.285 261.262 105.621 262.379 104.434C263.496 103.246 265.066 102.652 267.09 102.652C268.348 102.652 269.457 102.926 270.418 103.473C271.379 104.02 272.117 104.805 272.633 105.828C273.148 106.852 273.406 108.051 273.406 109.426ZM285.641 116L285.16 114.324H284.973C284.59 114.934 284.047 115.406 283.344 115.742C282.641 116.07 281.84 116.234 280.941 116.234C279.402 116.234 278.242 115.824 277.461 115.004C276.68 114.176 276.289 112.988 276.289 111.441V102.898H279.863V110.551C279.863 111.496 280.031 112.207 280.367 112.684C280.703 113.152 281.238 113.387 281.973 113.387C282.973 113.387 283.695 113.055 284.141 112.391C284.586 111.719 284.809 110.609 284.809 109.062V102.898H288.383V116H285.641ZM299.445 102.652C299.93 102.652 300.332 102.688 300.652 102.758L300.383 106.109C300.094 106.031 299.742 105.992 299.328 105.992C298.188 105.992 297.297 106.285 296.656 106.871C296.023 107.457 295.707 108.277 295.707 109.332V116H292.133V102.898H294.84L295.367 105.102H295.543C295.949 104.367 296.496 103.777 297.184 103.332C297.879 102.879 298.633 102.652 299.445 102.652Z" fill="white"/>
<path d="M135.367 138.758H160.098C167.444 138.758 173.013 140.163 176.805 142.973C180.596 145.749 182.492 149.743 182.492 154.957C182.492 164.707 177.465 171.089 167.41 174.102V174.508C170.389 175.49 172.759 177.216 174.52 179.688C176.28 182.125 177.16 185.121 177.16 188.676C177.16 196.428 174.57 202.421 169.391 206.652C164.245 210.884 156.932 213 147.453 213H119.676L135.367 138.758ZM149.18 167.246H152.836C155.815 167.246 158.066 166.603 159.59 165.316C161.113 164.03 161.875 161.965 161.875 159.121C161.875 155.668 159.725 153.941 155.426 153.941H152.227L149.18 167.246ZM146.184 181.922L142.832 197.512H146.996C149.908 197.512 152.328 196.699 154.258 195.074C156.221 193.415 157.203 191.35 157.203 188.879C157.203 186.543 156.645 184.799 155.527 183.648C154.41 182.497 152.447 181.922 149.637 181.922H146.184ZM241.945 137.59C250.747 137.59 257.585 140.112 262.46 145.156C267.369 150.167 269.824 157.174 269.824 166.18C269.824 175.185 268.131 183.428 264.746 190.91C261.394 198.358 256.756 204.079 250.832 208.074C244.907 212.035 238.035 214.016 230.214 214.016C221.108 214.016 214.066 211.493 209.089 206.449C204.147 201.405 201.675 194.397 201.675 185.426C201.675 176.454 203.419 168.211 206.906 160.695C210.393 153.18 215.132 147.458 221.125 143.531C227.151 139.57 234.091 137.59 241.945 137.59ZM249.765 166.383C249.765 162.523 248.953 159.51 247.328 157.344C245.703 155.143 243.35 154.043 240.269 154.043C236.917 154.043 233.837 155.465 231.027 158.309C228.217 161.152 225.966 165.062 224.273 170.039C222.614 175.016 221.785 180.111 221.785 185.324C221.785 193.517 225.17 197.613 231.941 197.613C235.157 197.613 238.136 196.208 240.878 193.398C243.654 190.589 245.821 186.797 247.378 182.023C248.97 177.25 249.765 172.036 249.765 166.383ZM312.823 185.984L307.085 213H287.23L302.921 138.758H322.573C331.105 138.758 337.638 140.451 342.175 143.836C346.711 147.221 348.98 152.316 348.98 159.121C348.98 164.402 347.778 169.007 345.374 172.934C342.97 176.861 339.399 179.857 334.659 181.922L346.034 208.125L348.065 213H326.433L316.53 185.984H312.823ZM316.022 170.902H318.612C321.828 170.902 324.384 169.988 326.28 168.16C328.176 166.298 329.124 163.708 329.124 160.391C329.124 158.292 328.532 156.701 327.347 155.617C326.196 154.5 324.503 153.941 322.269 153.941H319.577L316.022 170.902ZM367.249 213L382.94 138.758H403.1L387.409 213H367.249ZM482.104 213H458.998L444.322 160.797H443.916C442.934 170.648 441.969 177.724 441.022 182.023L434.471 213H416.799L432.49 138.758H455.596L470.119 188.676H470.576C471.558 180.686 472.523 174.406 473.471 169.836L480.123 138.758H497.795L482.104 213ZM546.888 169.531H577.865L569.384 209.902C560.921 212.645 552.102 214.016 542.927 214.016C534.091 214.016 527.236 211.443 522.361 206.297C517.486 201.151 515.048 193.855 515.048 184.41C515.048 175.371 516.91 167.212 520.634 159.934C524.358 152.655 529.453 147.12 535.92 143.328C542.42 139.503 549.969 137.59 558.568 137.59C567.573 137.59 575.157 139.401 581.318 143.023L573.853 158.715C568.673 155.668 563.494 154.145 558.314 154.145C553.845 154.145 549.884 155.38 546.431 157.852C543.012 160.289 540.27 163.911 538.205 168.719C536.173 173.526 535.158 178.655 535.158 184.105C535.158 193.043 538.696 197.512 545.771 197.512C547.904 197.512 550.155 197.275 552.525 196.801L555.115 185.02H543.486L546.888 169.531Z" fill="white"/>
<defs>
<filter id="filter0_d" x="604.688" y="179.16" width="136.589" height="46.176" filterUnits="userSpaceOnUse" color-interpolation-filters="sRGB">
<feFlood flood-opacity="0" result="BackgroundImageFix"/>
<feColorMatrix in="SourceAlpha" type="matrix" values="0 0 0 0 0 0 0 0 0 0 0 0 0 0 0 0 0 0 127 0"/>
<feOffset dx="10" dy="8"/>
<feGaussianBlur stdDeviation="2"/>
<feColorMatrix type="matrix" values="0 0 0 0 0 0 0 0 0 0 0 0 0 0 0 0 0 0 0.35 0"/>
<feBlend mode="normal" in2="BackgroundImageFix" result="effect1_dropShadow"/>
<feBlend mode="normal" in="SourceGraphic" in2="effect1_dropShadow" result="shape"/>
</filter>
</defs>
</svg>
