<svg width="403" height="316" viewBox="0 0 403 316" fill="none" xmlns="http://www.w3.org/2000/svg">
<g filter="url(#filter0_d)">
<path d="M56.6667 51.3333C64.4907 51.3333 70.8333 45.8115 70.8333 39C70.8333 32.1884 64.4907 26.6666 56.6667 26.6666C48.8426 26.6666 42.5 32.1884 42.5 39C42.5 45.8115 48.8426 51.3333 56.6667 51.3333Z" fill="#19BCFE"/>
<path fill-rule="evenodd" clip-rule="evenodd" d="M28.3333 76C32.0906 76 35.6939 74.7006 38.3507 72.3877C41.0075 70.0747 42.5 66.9377 42.5 63.6667V51.3334H28.3333C24.5761 51.3334 20.9728 52.6328 18.316 54.9457C15.6592 57.2587 14.1667 60.3957 14.1667 63.6667C14.1667 66.9377 15.6592 70.0747 18.316 72.3877C20.9728 74.7006 24.5761 76 28.3333 76Z" fill="#09CF83"/>
<path fill-rule="evenodd" clip-rule="evenodd" d="M28.3333 51.3333H42.5V26.6666H28.3333C24.5761 26.6666 20.9728 27.966 18.316 30.279C15.6592 32.5919 14.1667 35.729 14.1667 39C14.1667 42.271 15.6592 45.408 18.316 47.7209C20.9728 50.0339 24.5761 51.3333 28.3333 51.3333Z" fill="#A259FF"/>
<path fill-rule="evenodd" clip-rule="evenodd" d="M28.3333 26.6667H42.5V2H28.3333C24.5761 2 20.9728 3.2994 18.316 5.61235C15.6592 7.9253 14.1667 11.0623 14.1667 14.3333C14.1667 17.6043 15.6592 20.7414 18.316 23.0543C20.9728 25.3673 24.5761 26.6667 28.3333 26.6667Z" fill="#F24E1E"/>
<path fill-rule="evenodd" clip-rule="evenodd" d="M56.6667 26.6667H42.5V2H56.6667C60.4239 2 64.0272 3.2994 66.684 5.61235C69.3408 7.9253 70.8333 11.0623 70.8333 14.3333C70.8333 17.6043 69.3408 20.7414 66.684 23.0543C64.0272 25.3673 60.4239 26.6667 56.6667 26.6667Z" fill="#FF7262"/>
</g>
<g filter="url(#filter1_d)">
<path d="M144.157 3.01953C123.644 3.01953 124.925 11.0681 124.925 11.0681L124.947 19.4067H144.523V21.9102H117.172C117.172 21.9102 104.046 20.5633 104.046 39.2899C104.046 58.0172 115.503 57.353 115.503 57.353H122.341V48.6629C122.341 48.6629 121.972 38.2969 133.615 38.2969H153.03C153.03 38.2969 163.938 38.4563 163.938 28.7585V12.7237C163.938 12.7237 165.595 3.01953 144.157 3.01953ZM133.363 8.62708C133.826 8.6267 134.284 8.70886 134.711 8.86885C135.139 9.02884 135.527 9.26352 135.854 9.55946C136.181 9.85541 136.441 10.2068 136.618 10.5935C136.794 10.9803 136.885 11.3948 136.885 11.8133C136.885 12.2318 136.794 12.6463 136.618 13.0331C136.441 13.4198 136.181 13.7712 135.854 14.0672C135.527 14.3631 135.139 14.5978 134.711 14.7578C134.284 14.9178 133.826 14.9999 133.363 14.9995C132.901 14.9999 132.442 14.9178 132.015 14.7578C131.588 14.5978 131.199 14.3631 130.872 14.0672C130.545 13.7712 130.286 13.4198 130.109 13.0331C129.932 12.6463 129.841 12.2318 129.842 11.8133C129.841 11.3948 129.932 10.9803 130.109 10.5935C130.286 10.2068 130.545 9.85541 130.872 9.55946C131.199 9.26352 131.588 9.02884 132.015 8.86885C132.442 8.70886 132.901 8.6267 133.363 8.62708Z" fill="url(#paint0_linear)"/>
<path d="M144.74 75.7498C165.253 75.7498 163.972 67.7012 163.972 67.7012L163.949 59.3629H144.373V56.8594H171.724C171.724 56.8594 184.85 58.2064 184.85 39.4791C184.85 20.7522 173.393 21.4164 173.393 21.4164H166.556V30.1062C166.556 30.1062 166.924 40.4722 155.282 40.4722H135.866C135.866 40.4722 124.958 40.3128 124.958 50.0109V66.046C124.958 66.046 123.302 75.7498 144.739 75.7498H144.74ZM155.533 70.1429C155.071 70.1432 154.613 70.0611 154.185 69.9011C153.758 69.7411 153.369 69.5064 153.042 69.2105C152.715 68.9145 152.456 68.5631 152.279 68.1764C152.102 67.7896 152.011 67.3752 152.012 66.9566C152.011 66.5381 152.102 66.1235 152.279 65.7368C152.456 65.35 152.715 64.9986 153.042 64.7026C153.369 64.4066 153.758 64.1719 154.185 64.0119C154.613 63.8519 155.071 63.7697 155.533 63.7701C155.996 63.7697 156.454 63.8519 156.882 64.0119C157.309 64.1719 157.697 64.4065 158.024 64.7025C158.352 64.9984 158.611 65.3498 158.788 65.7366C158.965 66.1233 159.055 66.5378 159.055 66.9563C159.055 67.3749 158.965 67.7894 158.788 68.1761C158.611 68.5628 158.352 68.9142 158.024 69.2102C157.697 69.5061 157.309 69.7408 156.882 69.9008C156.454 70.0608 155.996 70.1429 155.533 70.1426V70.1429Z" fill="url(#paint1_linear)"/>
</g>
<g filter="url(#filter2_d)">
<path d="M267.457 0H277.294V58.838H267.457V0ZM251.985 42.055H261.821V50.4075H251.985V42.055ZM251.985 19.1847H261.821V36.8843H251.985V19.1847ZM251.985 55.575H261.821V73.2745H251.985V55.575ZM220.71 19.162H230.542V78H220.706L220.71 19.162ZM236.509 27.4788H246.345V35.8312H236.512L236.509 27.4788ZM236.509 40.9695H246.345V58.6722H236.512L236.509 40.9695ZM236.509 4.61175H246.345V22.3112H236.512L236.509 4.61175Z" fill="white"/>
</g>
<g filter="url(#filter3_d)">
<path d="M313 70.0715C313 75.5554 317.388 80 322.8 80H379.2C384.613 80 389 75.5548 389 70.0715V12.9288C389 7.44464 384.612 3 379.2 3H322.8C317.387 3 313 7.44525 313 12.9285V70.0712V70.0715Z" fill="#563D7C"/>
<path d="M344.516 37.0599V26.1556H353.989C354.892 26.1556 355.762 26.2317 356.599 26.3842C357.437 26.5364 358.178 26.8083 358.823 27.2003C359.467 27.5922 359.983 28.1363 360.37 28.8326C360.756 29.5292 360.95 30.4216 360.95 31.5096C360.95 33.4685 360.37 34.8834 359.209 35.7539C358.05 36.6246 356.567 37.0599 354.763 37.0599H344.516ZM334.397 18.1895V64.8105H356.696C358.759 64.8105 360.767 64.5495 362.722 64.027C364.677 63.5046 366.417 62.6994 367.942 61.6111C369.467 60.5229 370.681 59.1189 371.584 57.3996C372.486 55.68 372.937 53.6449 372.937 51.2943C372.937 48.3777 372.239 45.8857 370.843 43.8181C369.446 41.7502 367.33 40.3029 364.494 39.4757C366.557 38.4747 368.114 37.1904 369.167 35.6233C370.219 34.0563 370.746 32.0976 370.746 29.7467C370.746 27.5702 370.391 25.7421 369.682 24.2619C368.973 22.7821 367.974 21.5958 366.685 20.7034C365.397 19.811 363.85 19.1688 362.045 18.7772C360.241 18.3853 358.243 18.1895 356.052 18.1895H334.397ZM344.516 56.8444V44.0464H355.536C357.727 44.0464 359.489 44.5577 360.821 45.581C362.153 46.604 362.819 48.3124 362.819 50.7066C362.819 51.9257 362.615 52.9267 362.206 53.7102C361.798 54.4938 361.251 55.1143 360.563 55.5711C359.876 56.0283 359.081 56.3547 358.178 56.5508C357.276 56.7463 356.331 56.8444 355.343 56.8444H344.516Z" fill="white"/>
</g>
<g filter="url(#filter4_d)">
<path d="M80.7314 122H95.9239V175.183C88.142 176.307 82.4132 176.749 76.2148 176.749C57.6591 176.734 48 170.403 48 158.243C48 146.527 58.2457 138.923 74.1226 138.923C76.5863 138.923 78.4632 139.071 80.7314 139.515V122ZM81.2638 149.099C79.4844 148.655 78.0181 148.507 76.1409 148.507C68.4568 148.507 64.0184 152.087 64.0184 158.361C64.0184 164.469 68.2615 167.842 76.0434 167.842C77.7247 167.842 79.0934 167.77 81.2638 167.548V149.099Z" fill="#2BA977"/>
<path d="M120.768 140.351V166.979C120.768 176.149 119.869 180.559 117.229 184.361C114.765 188.016 111.52 190.321 104.813 192.867L90.7155 187.793C97.4221 185.412 100.668 183.309 102.741 180.099C104.911 176.816 105.595 173.014 105.595 163.014V140.351H120.768V140.351Z" fill="#2BA977"/>
<path d="M104.064 122H119.257V133.79H104.064V122Z" fill="#2BA977"/>
</g>
<g filter="url(#filter5_d)">
<path d="M360.745 170.96C357.44 170.974 354.567 171.633 352.162 172.608C351.279 171.16 350.397 169.871 350.241 168.925C350.068 167.822 349.861 167.148 350.068 165.83C350.276 164.512 351.21 162.635 351.193 162.491C351.176 162.348 350.985 161.675 349.082 161.66C347.178 161.646 345.535 161.961 345.344 162.377C345.154 162.792 344.79 163.738 344.548 164.712C344.219 166.145 340.741 171.261 338.752 173.94C338.111 172.894 337.557 171.977 337.436 171.246C337.263 170.143 337.055 169.47 337.263 168.151C337.471 166.833 338.405 164.956 338.388 164.813C338.371 164.669 338.18 163.996 336.277 163.982C334.373 163.967 332.729 164.283 332.539 164.698C332.349 165.114 332.141 166.088 331.743 167.034C331.345 167.98 326.725 176.52 325.514 178.726C325.024 179.619 324.511 180.503 323.974 181.377C323.974 181.377 323.956 181.42 323.904 181.492C323.735 181.766 323.563 182.038 323.385 182.309V182.323C323.126 182.71 322.849 183.068 322.71 183.068C322.606 183.068 322.416 182.036 322.745 180.632C323.437 177.666 325.081 173.052 325.064 172.894C325.064 172.808 325.375 172.006 323.991 171.59C322.641 171.175 322.157 171.863 322.035 171.863C321.914 171.863 321.828 172.106 321.828 172.106C321.828 172.106 323.333 166.919 318.955 166.919C316.221 166.919 312.449 169.398 310.58 171.633C308.456 172.591 306.333 173.551 304.212 174.514C303.192 174.986 302.136 175.459 301.149 175.903C301.08 175.846 301.011 175.774 300.942 175.717C295.647 171.032 285.853 167.721 286.268 161.431C286.424 159.139 287.375 153.12 305.077 145.812C319.647 139.866 331.241 141.513 333.249 145.167C336.121 150.383 327.037 160.07 311.982 161.474C306.237 162.004 303.226 160.17 302.465 159.482C301.669 158.766 301.547 158.723 301.253 158.866C300.769 159.081 301.08 159.726 301.253 160.098C301.703 161.073 303.555 162.792 306.687 163.638C309.455 164.383 316.187 164.799 324.337 162.191C333.456 159.267 340.586 151.143 338.492 144.337C336.398 137.43 322.555 135.152 309.455 139.006C301.669 141.299 293.224 144.91 287.15 149.61C279.934 155.198 278.792 160.055 279.259 162.09C280.938 169.312 292.965 174.012 297.775 177.494C297.533 177.609 297.308 177.709 297.118 177.795C294.712 178.784 285.541 182.753 283.257 186.951C280.661 191.708 283.672 195.119 285.662 195.577C291.84 196.996 298.19 194.445 301.599 190.232C305.008 186.02 304.593 180.546 303.018 178.038C303.001 178.01 302.984 177.981 302.949 177.952C303.572 177.652 304.212 177.336 304.835 177.035C305.98 176.475 307.14 175.935 308.313 175.416C307.725 176.749 307.292 178.339 307.085 180.632C306.825 183.326 308.157 186.822 309.905 188.198C310.684 188.8 311.601 188.814 312.19 188.814C314.231 188.814 315.149 187.41 316.169 185.748C317.415 183.713 318.54 181.349 318.54 181.349C318.54 181.349 317.138 187.739 320.945 187.739C322.33 187.739 323.731 186.249 324.354 185.49V185.504C324.354 185.504 324.389 185.461 324.458 185.361C324.597 185.174 324.683 185.059 324.683 185.059V185.031C325.237 184.229 326.483 182.409 328.334 179.385C330.722 175.488 333.024 170.616 333.024 170.616C333.024 170.616 333.232 171.805 333.941 173.783C334.356 174.943 335.221 176.219 335.914 177.451C335.36 178.096 335.014 178.454 335.014 178.454L335.031 178.468C334.581 178.955 334.097 179.486 333.56 180.002C331.674 181.864 329.425 184 329.113 184.615C328.749 185.346 328.836 185.877 329.528 186.306C330.03 186.622 330.93 186.664 331.847 186.622C333.543 186.521 334.737 186.177 335.325 185.963C336.242 185.69 337.315 185.275 338.319 184.658C340.17 183.526 341.295 181.907 341.191 179.773C341.139 178.597 340.672 177.422 340.101 176.319C340.274 176.119 340.43 175.918 340.603 175.717C343.527 172.178 345.794 168.295 345.794 168.295C345.794 168.295 346.002 169.484 346.711 171.462C347.057 172.465 347.767 173.554 348.39 174.614C345.638 176.462 343.943 178.612 343.337 180.016C342.247 182.624 343.095 183.799 344.704 184.071C345.431 184.2 346.469 183.913 347.23 183.641C348.199 183.383 349.342 182.939 350.432 182.28C352.284 181.148 354.066 179.572 353.962 177.437C353.91 176.462 353.598 175.502 353.166 174.571C355.502 173.769 358.513 173.324 362.354 173.697C370.591 174.499 372.218 178.755 371.906 180.546C371.595 182.337 369.864 183.312 369.293 183.612C368.722 183.914 368.532 184.014 368.584 184.229C368.653 184.544 368.93 184.53 369.414 184.472C370.089 184.372 373.741 183.025 373.896 179.729C374.156 175.517 369.31 170.917 360.745 170.96ZM297.204 188.699C294.47 191.164 290.663 192.095 289.019 191.307C287.254 190.462 287.946 186.822 291.303 184.214C293.345 182.624 295.975 181.148 297.723 180.245C298.121 180.044 298.71 179.758 299.419 179.4C299.54 179.342 299.609 179.314 299.609 179.314L300.025 179.099C301.253 182.824 300.077 186.106 297.204 188.699ZM317.104 177.494C316.152 179.414 314.162 184.329 312.951 184.057C311.913 183.828 311.272 180.102 312.743 176.419C313.487 174.571 315.062 172.364 315.979 171.505C317.467 170.129 319.111 169.67 319.509 170.229C320.011 170.96 317.692 176.29 317.104 177.494ZM333.526 183.999C333.127 184.171 332.747 184.286 332.574 184.2C332.453 184.143 332.747 183.913 332.747 183.913C332.747 183.913 334.806 182.079 335.619 181.248C336.087 180.761 336.64 180.188 337.229 179.543V179.729C337.229 181.922 334.667 183.398 333.525 183.999H333.526ZM346.192 181.606C345.898 181.434 345.95 180.861 346.936 179.07C347.317 178.368 348.216 177.193 349.757 176.061C349.93 176.52 350.051 176.964 350.034 177.379C350.016 180.145 347.629 181.177 346.192 181.606Z" fill="#CD6799"/>
</g>
<g clip-path="url(#clip0)" filter="url(#filter6_d)">
<path d="M189.931 157.331C188.426 157.331 187.202 158.022 186.263 159.402C185.325 160.784 184.849 162.596 184.849 164.816C184.849 165.966 184.967 167.015 185.2 167.976C185.433 168.939 185.795 169.831 186.283 170.637C186.77 171.444 187.746 172.54 189.199 173.934C190.983 175.621 192.151 176.992 192.711 178.061C193.272 179.13 193.55 180.25 193.55 181.418C193.55 182.982 193.218 184.23 192.535 185.168C191.852 186.107 190.938 186.574 189.804 186.574C188.609 186.574 187.567 185.921 186.673 184.624C185.779 183.325 185.327 181.606 185.317 179.452H184.761V187.27H185.317C185.487 186.53 185.722 186.151 186.029 186.151C186.177 186.151 186.524 186.309 187.063 186.604C188.376 187.329 189.454 187.678 190.302 187.678C191.762 187.678 193.009 186.885 194.048 185.274C195.085 183.663 195.608 181.721 195.608 179.452C195.608 177.694 195.263 176.129 194.584 174.765C193.906 173.399 192.586 171.811 190.614 169.987C188.917 168.406 187.815 167.119 187.307 166.116C186.798 165.114 186.536 164.006 186.536 162.789C186.536 161.474 186.848 160.417 187.463 159.629C188.078 158.841 188.884 158.45 189.892 158.45C191.027 158.45 191.972 158.972 192.721 160.022C193.469 161.075 193.901 162.533 194.028 164.407H194.584V157.634H194.067C194.004 157.979 193.945 158.199 193.891 158.299C193.839 158.397 193.739 158.45 193.589 158.45C193.409 158.45 193.089 158.332 192.633 158.102C191.658 157.593 190.758 157.331 189.931 157.331H189.931ZM208.104 157.331C206.27 157.331 204.605 158.001 203.1 159.342C201.593 160.68 200.4 162.539 199.52 164.906C198.64 167.274 198.203 169.788 198.203 172.467C198.203 176.066 198.963 179.273 200.496 182.083C202.029 184.892 203.866 186.642 205.997 187.315C206.485 187.709 207.182 188.725 208.095 190.37C209.123 192.226 209.993 193.564 210.709 194.361C211.408 195.143 212.186 195.741 213.011 196.131C213.827 196.516 214.71 196.705 215.664 196.705C216.82 196.705 217.855 196.394 218.766 195.753L218.561 194.966C218.032 195.262 217.468 195.405 216.874 195.405C216.067 195.405 215.252 194.993 214.435 194.165C213.619 193.335 212.599 191.752 211.382 189.417C210.81 188.298 210.415 187.592 210.192 187.315C212.524 186.609 214.442 184.857 215.938 182.053C217.433 179.251 218.181 176.052 218.181 172.467C218.181 168.21 217.204 164.632 215.264 161.716C213.323 158.799 210.936 157.331 208.104 157.331ZM219.449 157.331L219.478 158.253C220.7 158.253 221.384 158.811 221.537 159.931C221.594 160.333 221.62 161.073 221.624 162.139L221.615 182.537C221.605 184.061 221.465 185.033 221.195 185.455C220.926 185.874 220.47 186.137 219.81 186.241L219.781 187.164H231.955L232.267 182.537H231.711C231.552 183.797 231.188 184.701 230.609 185.213C230.028 185.73 229 185.985 227.516 185.985H226.365C225.03 185.985 224.258 185.236 224.053 183.731C224.012 183.434 223.997 183.115 223.995 182.764L224.043 162.139C224.043 160.618 224.167 159.599 224.424 159.1C224.684 158.603 225.151 158.325 225.829 158.253L225.8 157.331H219.449ZM208.299 158.449C210.368 158.449 212.057 159.713 213.362 162.26C214.666 164.809 215.313 168.301 215.313 172.724C215.313 176.915 214.657 180.27 213.343 182.794C212.028 185.317 210.278 186.574 208.104 186.574C206.016 186.574 204.322 185.278 203.022 182.673C201.723 180.068 201.081 176.686 201.081 172.527C201.081 168.254 201.731 164.832 203.042 162.275C204.351 159.721 206.105 158.45 208.299 158.45L208.299 158.449ZM236.296 162.835C235.999 162.835 235.773 162.99 235.603 163.304C235.43 163.616 235.377 163.994 235.437 164.453C235.496 164.898 235.658 165.288 235.915 165.617C236.171 165.945 236.447 166.116 236.745 166.116C237.032 166.116 237.251 165.945 237.408 165.617C237.565 165.289 237.613 164.898 237.554 164.453C237.494 163.994 237.337 163.616 237.096 163.303C236.851 162.99 236.583 162.835 236.296 162.835V162.835ZM244.324 165.965C243.819 168.973 242.726 170.601 241.046 170.864L241.066 171.726H243.027L242.988 181.917C242.991 183.66 243.025 184.82 243.105 185.41C243.298 186.823 243.893 187.542 244.89 187.542C246.332 187.542 247.844 186.181 249.426 183.459L248.948 182.825C247.806 184.616 246.796 185.516 245.914 185.516C245.372 185.516 245.036 185.033 244.909 184.079C244.875 183.848 244.861 183.577 244.861 183.263L244.88 171.726H247.875L247.845 170.35H244.89V165.965H244.324ZM255.903 169.805C254.228 169.805 252.865 171.066 251.806 173.571C250.752 176.079 250.426 178.859 250.84 181.917C251.084 183.709 251.57 185.097 252.313 186.075C253.055 187.054 253.997 187.542 255.123 187.542C256.171 187.542 257.63 187.131 258.244 186.302C258.86 185.474 259.427 184.132 259.951 182.295L259.532 181.614C258.696 183.998 257.009 185.198 255.737 185.198C253.988 185.198 252.917 183.711 252.518 180.753C252.464 180.353 252.425 179.949 252.401 179.543C254.482 179.033 256.058 178.128 257.122 176.822C258.186 175.514 259.253 174.128 259.054 172.663C258.935 171.793 258.644 171.109 258.195 170.592C257.741 170.075 256.562 169.805 255.903 169.805ZM237.593 169.911L233.984 171.197V172.195L235.232 171.953C235.837 171.953 236.193 172.377 236.306 173.223C236.343 173.506 236.367 173.903 236.374 174.402L236.335 183.55C236.325 184.816 236.234 185.552 236.052 185.773C235.868 185.994 235.383 186.106 234.598 186.106L234.579 186.967H240.305L240.295 186.105C239.5 186.105 238.984 186.008 238.754 185.818C238.528 185.63 238.372 185.286 238.305 184.76C238.253 184.381 238.231 183.727 238.227 182.825L238.247 169.911H237.593H237.593ZM254.986 171.605C255.335 171.605 255.671 171.813 256.01 172.225C256.345 172.635 256.548 173.09 256.615 173.586C256.942 176.018 255.551 177.699 252.42 178.636C252.331 176.863 252.529 175.252 253.035 173.797C253.537 172.343 254.19 171.605 254.986 171.605Z" fill="white"/>
<path d="M181.846 122.405H150.785C148.703 122.405 147 125.045 147 128.272V181.369C147 184.596 148.703 187.236 150.785 187.236H171.243C171.011 171.458 174.487 140.837 181.846 122.405Z" fill="#0F80CC"/>
<path d="M180.718 124.116H150.785C149.307 124.116 148.104 125.98 148.104 128.272V177.495C154.883 173.462 165.058 169.983 172.093 170.141C173.507 158.682 177.662 136.226 180.718 124.116Z" fill="url(#paint2_linear)"/>
<path d="M189.091 120.667C186.964 117.726 184.388 118.907 181.846 122.405C181.469 122.924 181.092 123.5 180.718 124.116C176.369 131.267 172.333 144.513 171.079 154.629C171.567 156.164 171.949 158.124 172.2 159.621C172.264 160.005 172.322 160.365 172.369 160.672C172.479 161.398 172.539 161.868 172.539 161.868C172.539 161.868 172.5 161.64 172.34 160.921C172.309 160.783 172.275 160.632 172.235 160.455C172.214 160.368 172.192 160.283 172.168 160.198C171.884 159.175 171.1 157.018 170.754 156.079C170.481 157.323 170.222 158.576 169.979 159.836C170.976 162.664 171.584 167.509 171.584 167.509C171.584 167.509 171.531 167.195 171.281 166.099C171.058 165.13 169.95 162.121 169.688 161.418C169.239 163.987 169.061 165.721 169.222 166.143C169.534 166.961 169.831 168.373 170.093 169.934C170.683 173.451 171.092 177.732 171.092 177.732C171.092 177.732 171.106 178.016 171.128 178.453C171.046 181.406 171.095 184.468 171.243 187.236C171.438 190.9 171.806 194.047 172.275 195.732L172.594 195.463C171.905 192.144 171.625 187.795 171.748 182.779C171.933 175.112 173.071 165.866 175.174 156.23C178.728 141.682 183.657 130.01 188.169 124.436C184.057 130.193 178.491 148.827 176.825 155.727C174.959 163.455 173.637 170.706 172.841 177.654C174.215 171.14 178.66 168.341 178.66 168.341C178.66 168.341 180.84 164.173 183.388 158.219C181.862 158.759 179.356 159.682 178.516 160.229C177.278 161.034 176.945 161.309 176.945 161.309C176.945 161.309 180.955 157.523 184.396 155.809C189.128 144.257 194.283 127.845 189.091 120.667Z" fill="#003B57"/>
</g>
<g clip-path="url(#clip1)" filter="url(#filter7_d)">
<path d="M163.134 238.176C165.422 238.187 167.271 240.75 167.309 243.932L167.31 244.072L167.06 297.612C167.045 300.81 165.205 303.404 162.93 303.467L162.83 303.469L129.204 303.312C126.916 303.301 125.067 300.737 125.028 297.557L125.028 297.416L125.277 243.876C125.292 240.678 127.133 238.085 129.407 238.021L129.508 238.02L163.134 238.176ZM163.119 241.441L129.493 241.284C129.01 241.283 128.545 241.543 128.195 242.009C127.844 242.476 127.636 243.113 127.614 243.787L127.612 243.887L127.363 297.427C127.36 298.102 127.545 298.752 127.877 299.24C128.21 299.728 128.665 300.016 129.147 300.045L129.219 300.047L162.845 300.204C163.328 300.206 163.793 299.946 164.143 299.479C164.493 299.013 164.701 298.376 164.723 297.701L164.725 297.601L164.975 244.061C164.977 243.369 164.783 242.704 164.435 242.213C164.088 241.721 163.614 241.444 163.119 241.44L163.119 241.441ZM135.615 280.489L140.839 287.043L135.554 293.548L135.615 280.489ZM140.438 247.865L140.351 266.4C142.688 265.35 145.952 264.214 149.118 264.229C152.005 264.242 153.726 265.837 154.661 267.172C156.626 269.979 156.666 273.532 156.662 274.037L156.661 274.058L156.571 293.645L151.9 293.624L151.991 274.126C151.976 272.602 151.459 270.769 149.087 270.758C144.387 270.736 139.104 273.984 138.947 274.081L138.944 274.083L135.635 276.158L135.767 247.843L140.438 247.865ZM156.784 247.941C156.451 251.648 155.359 255.198 153.231 258.534L148.561 258.512C150.412 255.155 151.581 251.617 152.113 247.919L156.784 247.941Z" fill="#430098"/>
<path d="M243.765 259.355C247.909 259.374 252.198 263.073 252.157 271.891C252.116 280.71 247.793 284.368 243.649 284.349C239.482 284.329 235.193 280.632 235.234 271.812C235.275 262.994 239.598 259.335 243.765 259.355ZM281.667 259.988L281.6 274.373C281.585 277.691 282.346 279.192 284.209 279.201C286.071 279.209 286.823 277.715 286.838 274.397L286.905 260.012L291.468 260.033L291.401 274.45C291.371 280.83 289.166 284.464 284.138 284.44C279.109 284.417 276.915 280.763 276.944 274.383L277.012 259.966L281.667 259.988ZM182.402 259.525L182.36 268.474L188.087 268.501L188.128 259.552L192.785 259.573L192.673 283.656L188.016 283.635L188.062 273.904L182.335 273.877L182.29 283.608L177.634 283.586L177.746 259.503L182.402 259.525ZM211.073 259.658L211.047 265.061L203.411 265.026L203.393 268.931L208.841 268.956L208.817 274.034L203.37 274.008L203.349 278.467L211.381 278.504L211.356 283.743L198.669 283.684L198.781 259.601L211.072 259.658L211.073 259.658ZM223.31 259.716C227.733 259.736 230.424 261.8 230.397 267.592C230.379 271.367 229.227 273.543 226.965 274.605L230.576 283.833L225.642 283.81L222.351 275.432L221.071 275.426L221.032 283.788L216.47 283.767L216.582 259.684L223.31 259.716ZM262.052 259.896L262.011 268.619L266.801 259.918L272.201 259.943L266.361 269.42L272.601 284.029L267.34 284.004L263.312 274.352L261.974 276.493L261.939 283.98L257.284 283.958L257.397 259.874L262.052 259.896L262.052 259.896ZM243.74 264.725C241.296 264.713 239.91 267.408 239.89 271.834C239.869 276.261 241.229 279.131 243.673 279.142C246.094 279.154 247.48 276.297 247.501 271.869C247.522 267.443 246.161 264.736 243.74 264.725ZM223.122 264.986L221.12 264.977L221.094 270.477L223.096 270.486C225.005 270.495 225.846 269.751 225.856 267.733C225.865 265.717 225.031 264.995 223.122 264.986Z" fill="#430098"/>
</g>
<defs>
<filter id="filter0_d" x="0" y="2" width="99" height="86" filterUnits="userSpaceOnUse" color-interpolation-filters="sRGB">
<feFlood flood-opacity="0" result="BackgroundImageFix"/>
<feColorMatrix in="SourceAlpha" type="matrix" values="0 0 0 0 0 0 0 0 0 0 0 0 0 0 0 0 0 0 127 0"/>
<feOffset dx="10" dy="8"/>
<feGaussianBlur stdDeviation="2"/>
<feColorMatrix type="matrix" values="0 0 0 0 0 0 0 0 0 0 0 0 0 0 0 0 0 0 0.35 0"/>
<feBlend mode="normal" in2="BackgroundImageFix" result="effect1_dropShadow"/>
<feBlend mode="normal" in="SourceGraphic" in2="effect1_dropShadow" result="shape"/>
</filter>
<filter id="filter1_d" x="104" y="3" width="95" height="85" filterUnits="userSpaceOnUse" color-interpolation-filters="sRGB">
<feFlood flood-opacity="0" result="BackgroundImageFix"/>
<feColorMatrix in="SourceAlpha" type="matrix" values="0 0 0 0 0 0 0 0 0 0 0 0 0 0 0 0 0 0 127 0"/>
<feOffset dx="10" dy="8"/>
<feGaussianBlur stdDeviation="2"/>
<feColorMatrix type="matrix" values="0 0 0 0 0 0 0 0 0 0 0 0 0 0 0 0 0 0 0.35 0"/>
<feBlend mode="normal" in2="BackgroundImageFix" result="effect1_dropShadow"/>
<feBlend mode="normal" in="SourceGraphic" in2="effect1_dropShadow" result="shape"/>
</filter>
<filter id="filter2_d" x="204" y="0" width="104" height="90" filterUnits="userSpaceOnUse" color-interpolation-filters="sRGB">
<feFlood flood-opacity="0" result="BackgroundImageFix"/>
<feColorMatrix in="SourceAlpha" type="matrix" values="0 0 0 0 0 0 0 0 0 0 0 0 0 0 0 0 0 0 127 0"/>
<feOffset dx="10" dy="8"/>
<feGaussianBlur stdDeviation="2"/>
<feColorMatrix type="matrix" values="0 0 0 0 0 0 0 0 0 0 0 0 0 0 0 0 0 0 0.35 0"/>
<feBlend mode="normal" in2="BackgroundImageFix" result="effect1_dropShadow"/>
<feBlend mode="normal" in="SourceGraphic" in2="effect1_dropShadow" result="shape"/>
</filter>
<filter id="filter3_d" x="313" y="3" width="90" height="89" filterUnits="userSpaceOnUse" color-interpolation-filters="sRGB">
<feFlood flood-opacity="0" result="BackgroundImageFix"/>
<feColorMatrix in="SourceAlpha" type="matrix" values="0 0 0 0 0 0 0 0 0 0 0 0 0 0 0 0 0 0 127 0"/>
<feOffset dx="10" dy="8"/>
<feGaussianBlur stdDeviation="2"/>
<feColorMatrix type="matrix" values="0 0 0 0 0 0 0 0 0 0 0 0 0 0 0 0 0 0 0.35 0"/>
<feBlend mode="normal" in2="BackgroundImageFix" result="effect1_dropShadow"/>
<feBlend mode="normal" in="SourceGraphic" in2="effect1_dropShadow" result="shape"/>
</filter>
<filter id="filter4_d" x="48" y="122" width="87" height="83" filterUnits="userSpaceOnUse" color-interpolation-filters="sRGB">
<feFlood flood-opacity="0" result="BackgroundImageFix"/>
<feColorMatrix in="SourceAlpha" type="matrix" values="0 0 0 0 0 0 0 0 0 0 0 0 0 0 0 0 0 0 127 0"/>
<feOffset dx="10" dy="8"/>
<feGaussianBlur stdDeviation="2"/>
<feColorMatrix type="matrix" values="0 0 0 0 0 0 0 0 0 0 0 0 0 0 0 0 0 0 0.35 0"/>
<feBlend mode="normal" in2="BackgroundImageFix" result="effect1_dropShadow"/>
<feBlend mode="normal" in="SourceGraphic" in2="effect1_dropShadow" result="shape"/>
</filter>
<filter id="filter5_d" x="279" y="137" width="109" height="71" filterUnits="userSpaceOnUse" color-interpolation-filters="sRGB">
<feFlood flood-opacity="0" result="BackgroundImageFix"/>
<feColorMatrix in="SourceAlpha" type="matrix" values="0 0 0 0 0 0 0 0 0 0 0 0 0 0 0 0 0 0 127 0"/>
<feOffset dx="10" dy="8"/>
<feGaussianBlur stdDeviation="2"/>
<feColorMatrix type="matrix" values="0 0 0 0 0 0 0 0 0 0 0 0 0 0 0 0 0 0 0.35 0"/>
<feBlend mode="normal" in2="BackgroundImageFix" result="effect1_dropShadow"/>
<feBlend mode="normal" in="SourceGraphic" in2="effect1_dropShadow" result="shape"/>
</filter>
<filter id="filter6_d" x="147" y="119" width="127" height="90" filterUnits="userSpaceOnUse" color-interpolation-filters="sRGB">
<feFlood flood-opacity="0" result="BackgroundImageFix"/>
<feColorMatrix in="SourceAlpha" type="matrix" values="0 0 0 0 0 0 0 0 0 0 0 0 0 0 0 0 0 0 127 0"/>
<feOffset dx="10" dy="8"/>
<feGaussianBlur stdDeviation="2"/>
<feColorMatrix type="matrix" values="0 0 0 0 0 0 0 0 0 0 0 0 0 0 0 0 0 0 0.35 0"/>
<feBlend mode="normal" in2="BackgroundImageFix" result="effect1_dropShadow"/>
<feBlend mode="normal" in="SourceGraphic" in2="effect1_dropShadow" result="shape"/>
</filter>
<filter id="filter7_d" x="125" y="238" width="180.567" height="78.149" filterUnits="userSpaceOnUse" color-interpolation-filters="sRGB">
<feFlood flood-opacity="0" result="BackgroundImageFix"/>
<feColorMatrix in="SourceAlpha" type="matrix" values="0 0 0 0 0 0 0 0 0 0 0 0 0 0 0 0 0 0 127 0"/>
<feOffset dx="10" dy="8"/>
<feGaussianBlur stdDeviation="2"/>
<feColorMatrix type="matrix" values="0 0 0 0 0 0 0 0 0 0 0 0 0 0 0 0 0 0 0.35 0"/>
<feBlend mode="normal" in2="BackgroundImageFix" result="effect1_dropShadow"/>
<feBlend mode="normal" in="SourceGraphic" in2="effect1_dropShadow" result="shape"/>
</filter>
<linearGradient id="paint0_linear" x1="111.811" y1="9.56109" x2="147.897" y2="49.0476" gradientUnits="userSpaceOnUse">
<stop stop-color="#387EB8"/>
<stop offset="1" stop-color="#366994"/>
</linearGradient>
<linearGradient id="paint1_linear" x1="136.39" y1="32.5953" x2="175.322" y2="73.2725" gradientUnits="userSpaceOnUse">
<stop stop-color="#FFE052"/>
<stop offset="1" stop-color="#FFC331"/>
</linearGradient>
<linearGradient id="paint2_linear" x1="166.91" y1="125.208" x2="166.91" y2="174.527" gradientUnits="userSpaceOnUse">
<stop stop-color="#97D9F6"/>
<stop offset="0.92024" stop-color="#0F80CC"/>
<stop offset="1" stop-color="#0F80CC"/>
</linearGradient>
<clipPath id="clip0">
<rect width="113" height="78" fill="white" transform="translate(147 119)"/>
</clipPath>
<clipPath id="clip1">
<rect width="166.264" height="65.3748" fill="white" transform="translate(125.305 238) rotate(0.267051)"/>
</clipPath>
</defs>
</svg>
